<?xml version="1.0" encoding="UTF-8" standalone="no"?>
<!-- Created with Inkscape (http://www.inkscape.org/) -->

<svg
   xmlns:dc="http://purl.org/dc/elements/1.1/"
   xmlns:cc="http://creativecommons.org/ns#"
   xmlns:rdf="http://www.w3.org/1999/02/22-rdf-syntax-ns#"
   xmlns:svg="http://www.w3.org/2000/svg"
   xmlns="http://www.w3.org/2000/svg"
   xmlns:sodipodi="http://sodipodi.sourceforge.net/DTD/sodipodi-0.dtd"
   xmlns:inkscape="http://www.inkscape.org/namespaces/inkscape"
   width="48"
   height="48"
   id="svg2"
   version="1.1"
   inkscape:version="0.48.3.1 r9886"
   sodipodi:docname="hq_is_on.ink.svg"
   inkscape:export-filename="/home/dodo/Bilder/c3d2/hq_is_on.ink.png"
   inkscape:export-xdpi="240"
   inkscape:export-ydpi="240">
  <defs
     id="defs4" />
  <sodipodi:namedview
     id="base"
     pagecolor="#ffffff"
     bordercolor="#666666"
     borderopacity="1.0"
     inkscape:pageopacity="0.0"
     inkscape:pageshadow="2"
     inkscape:zoom="6.15625"
     inkscape:cx="25.731735"
     inkscape:cy="20.32241"
     inkscape:document-units="px"
     inkscape:current-layer="layer1"
     showgrid="false"
     inkscape:window-width="1280"
     inkscape:window-height="786"
     inkscape:window-x="0"
     inkscape:window-y="14"
     inkscape:window-maximized="0" />
  <metadata
     id="metadata7">
    <rdf:RDF>
      <cc:Work
         rdf:about="">
        <dc:format>image/svg+xml</dc:format>
        <dc:type
           rdf:resource="http://purl.org/dc/dcmitype/StillImage" />
        <dc:title></dc:title>
      </cc:Work>
    </rdf:RDF>
  </metadata>
  <g
     inkscape:label="Layer 1"
     inkscape:groupmode="layer"
     id="layer1"
     transform="translate(0,-1004.3622)">
    <path
       inkscape:connector-curvature="0"
       id="path3762"
       style="font-size:35.30677794999999719px;font-style:normal;font-variant:normal;font-weight:normal;font-stretch:normal;text-align:center;line-height:109.00000334000000635%;letter-spacing:0px;word-spacing:0px;writing-mode:lr-tb;text-anchor:middle;fill:#ffffff;fill-opacity:1;stroke:#000000;stroke-width:2.50783229000000008;stroke-miterlimit:4;stroke-opacity:1;stroke-dasharray:none;font-family:'1900.80.5';-inkscape-font-specification:'1900.80.5'"
       d="m 18.18764,1035.5325 c -0.870397,0 -1.615244,-0.3014 -2.234545,-0.904 -0.602585,-0.6193 -0.903872,-1.364 -0.903861,-2.2345 l 0,-1.883 -3.766089,0 0,1.883 c -7e-6,0.8705 -0.309662,1.6152 -0.928969,2.2345 -0.6025779,0.6026 -1.3390579,0.904 -2.2094379,0.904 -0.870387,0 -1.615236,-0.3014 -2.234547,-0.904 -0.602575,-0.6193 -0.903861,-1.364 -0.903861,-2.2345 l 0,-10.0429 c 0,-0.8704 0.301286,-1.6068 0.903861,-2.2095 0.619311,-0.6192 1.36416,-0.9289 2.234547,-0.9289 0.87038,0 1.60686,0.3097 2.2094379,0.9289 0.619307,0.6027 0.928962,1.3391 0.928969,2.2095 l 0,1.8831 3.766089,0 0,-1.8831 c -1.1e-5,-0.8704 0.301276,-1.6068 0.903861,-2.2095 0.619301,-0.6192 1.364148,-0.9289 2.234545,-0.9289 0.870371,0 1.606849,0.3097 2.209439,0.9289 0.619296,0.6027 0.928952,1.3391 0.928969,2.2095 l 0,10.0429 c -1.7e-5,0.8705 -0.309673,1.6152 -0.928969,2.2345 -0.60259,0.6026 -1.339068,0.904 -2.209439,0.904"
       sodipodi:nodetypes="cccccssscsscscsccccsccccc" />
    <path
       style="fill:#2bd42b;fill-opacity:1;stroke:#ffffff;stroke-width:0.54900002000000003;stroke-miterlimit:4;stroke-opacity:1;stroke-dasharray:none"
       d="m 35.154837,1035.7334 c -4.577519,0 -8.299794,-3.6938 -8.299794,-8.2714 0,-3.5517 2.230186,-6.5772 5.372127,-7.7597 l 0,2.416 c -1.888056,1.0328 -3.155059,3.0423 -3.155059,5.3437 0,3.3536 2.729182,6.0827 6.082726,6.0827 3.353544,0 6.054302,-2.7291 6.054302,-6.0827 0,-2.3396 -1.332994,-4.3554 -3.268755,-5.3721 l 0,-2.4445 c 3.201154,1.1476 5.485823,4.2168 5.485823,7.8166 0,4.5776 -3.693851,8.2714 -8.27137,8.2714 z"
       id="path3780"
       inkscape:connector-curvature="0" />
    <rect
       style="fill:#2bd42b;fill-opacity:1;stroke:#ffffff;stroke-width:0.54900002000000003;stroke-miterlimit:4;stroke-opacity:1;stroke-dasharray:none"
       id="rect3799"
       width="2.2722831"
       height="7.4569979"
       x="33.951359"
       y="-1024.5228"
       transform="scale(1,-1)" />
  </g>
</svg>
